<svg width="900" height="500" viewBox="0 0 900 500" fill="none" xmlns="http://www.w3.org/2000/svg">
  <!-- Dashboard background -->
  <rect width="900" height="500" rx="15" fill="#FFFFFF" stroke="#EEEEEE" stroke-width="2"/>
  
  <!-- Top Bar -->
  <rect x="0" y="0" width="900" height="60" rx="15" fill="#87A636"/>
  <circle cx="30" cy="30" r="15" fill="#FFFFFF"/>
  <rect x="60" y="20" width="100" height="20" rx="5" fill="#FFFFFF"/>
  <rect x="800" y="20" width="70" height="20" rx="10" fill="#F3C13A"/>
  
  <!-- Sidebar -->
  <rect x="0" y="60" width="200" height="440" fill="#F9F9F9"/>
  
  <!-- Sidebar Menu Items -->
  <rect x="20" y="100" width="160" height="40" rx="5" fill="#FFFFFF" stroke="#EEEEEE" stroke-width="1"/>
  <rect x="30" y="115" width="25" height="10" rx="5" fill="#87A636"/>
  <rect x="65" y="115" width="80" height="10" rx="5" fill="#4A4A4A"/>
  
  <rect x="20" y="150" width="160" height="40" rx="5" fill="#87A636"/>
  <rect x="30" y="165" width="25" height="10" rx="5" fill="#FFFFFF"/>
  <rect x="65" y="165" width="80" height="10" rx="5" fill="#FFFFFF"/>
  
  <rect x="20" y="200" width="160" height="40" rx="5" fill="#FFFFFF" stroke="#EEEEEE" stroke-width="1"/>
  <rect x="30" y="215" width="25" height="10" rx="5" fill="#87A636"/>
  <rect x="65" y="215" width="80" height="10" rx="5" fill="#4A4A4A"/>
  
  <rect x="20" y="250" width="160" height="40" rx="5" fill="#FFFFFF" stroke="#EEEEEE" stroke-width="1"/>
  <rect x="30" y="265" width="25" height="10" rx="5" fill="#87A636"/>
  <rect x="65" y="265" width="80" height="10" rx="5" fill="#4A4A4A"/>
  
  <rect x="20" y="300" width="160" height="40" rx="5" fill="#FFFFFF" stroke="#EEEEEE" stroke-width="1"/>
  <rect x="30" y="315" width="25" height="10" rx="5" fill="#87A636"/>
  <rect x="65" y="315" width="80" height="10" rx="5" fill="#4A4A4A"/>
  
  <!-- Main Content Area -->
  <rect x="220" y="80" width="650" height="50" rx="5" fill="#F9F9F9"/>
  <rect x="240" y="95" width="200" height="20" rx="5" fill="#4A4A4A"/>
  <rect x="720" y="95" width="130" height="20" rx="10" fill="#87A636"/>
  
  <!-- Analytics Charts -->
  <rect x="220" y="150" width="310" height="160" rx="10" fill="#FFFFFF" stroke="#EEEEEE" stroke-width="1"/>
  <rect x="240" y="170" width="100" height="15" rx="5" fill="#4A4A4A"/>
  
  <!-- Bar Chart -->
  <rect x="240" y="200" width="30" height="80" rx="5" fill="rgba(135, 166, 54, 0.7)"/>
  <rect x="280" y="220" width="30" height="60" rx="5" fill="rgba(135, 166, 54, 0.5)"/>
  <rect x="320" y="180" width="30" height="100" rx="5" fill="rgba(135, 166, 54, 0.8)"/>
  <rect x="360" y="240" width="30" height="40" rx="5" fill="rgba(135, 166, 54, 0.4)"/>
  <rect x="400" y="210" width="30" height="70" rx="5" fill="rgba(135, 166, 54, 0.6)"/>
  <rect x="440" y="190" width="30" height="90" rx="5" fill="rgba(135, 166, 54, 0.75)"/>
  
  <!-- Donut Chart -->
  <rect x="560" y="150" width="310" height="160" rx="10" fill="#FFFFFF" stroke="#EEEEEE" stroke-width="1"/>
  <rect x="580" y="170" width="100" height="15" rx="5" fill="#4A4A4A"/>
  
  <circle cx="715" cy="230" r="60" fill="transparent" stroke="#EEEEEE" stroke-width="20"/>
  <path d="M715 170 A60 60 0 0 1 769.282 200 L715 230 Z" fill="#87A636"/>
  <path d="M715 230 A60 60 0 0 1 660.718 200 L715 230 Z" fill="#F3C13A"/>
  <path d="M715 230 A60 60 0 0 1 660.718 260 L715 230 Z" fill="#4A4A4A"/>
  <path d="M715 230 A60 60 0 0 1 769.282 260 L715 230 Z" fill="#6F6F6F"/>
  <circle cx="715" cy="230" r="20" fill="white"/>
  
  <!-- Product Grid -->
  <rect x="220" y="330" width="200" height="150" rx="10" fill="#FFFFFF" stroke="#EEEEEE" stroke-width="1"/>
  <rect x="240" y="350" width="160" height="90" rx="5" fill="#F9F9F9"/>
  <rect x="240" y="450" width="100" height="10" rx="5" fill="#4A4A4A"/>
  
  <rect x="440" y="330" width="200" height="150" rx="10" fill="#FFFFFF" stroke="#EEEEEE" stroke-width="1"/>
  <rect x="460" y="350" width="160" height="90" rx="5" fill="#F9F9F9"/>
  <rect x="460" y="450" width="100" height="10" rx="5" fill="#4A4A4A"/>
  
  <rect x="660" y="330" width="200" height="150" rx="10" fill="#FFFFFF" stroke="#EEEEEE" stroke-width="1"/>
  <rect x="680" y="350" width="160" height="90" rx="5" fill="#F9F9F9"/>
  <rect x="680" y="450" width="100" height="10" rx="5" fill="#4A4A4A"/>
  
  <!-- Decorative Elements -->
  <circle cx="180" cy="450" r="80" fill="rgba(135, 166, 54, 0.05)"/>
  <circle cx="100" cy="400" r="40" fill="rgba(243, 193, 58, 0.05)"/>
</svg> 