<?xml version="1.0" encoding="UTF-8" standalone="no"?>
<svg width="800" height="600" viewBox="0 0 800 600" xmlns="http://www.w3.org/2000/svg">
  <!-- Background -->
  <rect width="800" height="600" rx="15" fill="#FFFFFF" stroke="#EEEEEE" stroke-width="2"/>
  
  <!-- Header -->
  <rect x="0" y="0" width="800" height="60" rx="15" fill="#87A636"/>
  <circle cx="50" cy="30" r="15" fill="#FFFFFF"/>
  <rect x="80" y="25" width="40" height="10" rx="5" fill="#FFFFFF"/>
  <rect x="130" y="25" width="40" height="10" rx="5" fill="#FFFFFF"/>
  <rect x="180" y="25" width="40" height="10" rx="5" fill="#FFFFFF"/>
  <rect x="230" y="25" width="40" height="10" rx="5" fill="#FFFFFF"/>
  <rect x="700" y="20" width="70" height="20" rx="10" fill="#F3C13A"/>
  
  <!-- Hero Section -->
  <rect x="50" y="90" width="700" height="200" rx="10" fill="#F9F9F9"/>
  <rect x="100" y="120" width="250" height="20" rx="5" fill="#4A4A4A"/>
  <rect x="100" y="150" width="300" height="15" rx="5" fill="#6F6F6F"/>
  <rect x="100" y="175" width="300" height="15" rx="5" fill="#6F6F6F"/>
  <rect x="100" y="210" width="120" height="40" rx="5" fill="#87A636"/>
  <rect x="240" y="210" width="120" height="40" rx="5" fill="none" stroke="#87A636" stroke-width="2"/>
  
  <!-- Products Grid -->
  <rect x="50" y="330" width="220" height="220" rx="10" fill="#FFFFFF" stroke="#EEEEEE" stroke-width="2"/>
  <rect x="70" y="350" width="180" height="120" rx="5" fill="#F9F9F9"/>
  <rect x="70" y="490" width="100" height="15" rx="5" fill="#4A4A4A"/>
  <rect x="70" y="515" width="60" height="15" rx="5" fill="#87A636"/>
  
  <rect x="290" y="330" width="220" height="220" rx="10" fill="#FFFFFF" stroke="#EEEEEE" stroke-width="2"/>
  <rect x="310" y="350" width="180" height="120" rx="5" fill="#F9F9F9"/>
  <rect x="310" y="490" width="100" height="15" rx="5" fill="#4A4A4A"/>
  <rect x="310" y="515" width="60" height="15" rx="5" fill="#87A636"/>
  
  <rect x="530" y="330" width="220" height="220" rx="10" fill="#FFFFFF" stroke="#EEEEEE" stroke-width="2"/>
  <rect x="550" y="350" width="180" height="120" rx="5" fill="#F9F9F9"/>
  <rect x="550" y="490" width="100" height="15" rx="5" fill="#4A4A4A"/>
  <rect x="550" y="515" width="60" height="15" rx="5" fill="#87A636"/>
  
  <!-- Decorative Elements -->
  <circle cx="700" cy="150" r="60" fill="rgba(135, 166, 54, 0.1)"/>
  <circle cx="630" cy="180" r="30" fill="rgba(243, 193, 58, 0.1)"/>
  <circle cx="730" cy="210" r="15" fill="rgba(243, 193, 58, 0.2)"/>
</svg>