<svg width="160" height="48" viewBox="0 0 160 48" fill="none" xmlns="http://www.w3.org/2000/svg">
  <path d="M22.0693 38.8525C19.5693 42.8525 13.5693 42.8525 11.0693 38.8525L1.06934 22.8525C-1.43066 18.8525 1.56934 13.8525 6.06934 13.8525H27.0693C31.5693 13.8525 34.5693 18.8525 32.0693 22.8525L22.0693 38.8525Z" fill="#87A636"/>
  <path d="M26.0693 14.8525C29.1693 14.8525 31.2693 18.1525 29.5693 20.8525L21.0693 34.3525C19.3693 37.0525 15.7693 37.0525 14.0693 34.3525L5.56934 20.8525C3.86934 18.1525 5.96934 14.8525 9.06934 14.8525H26.0693Z" fill="white"/>
  <path d="M53.0254 14.8667H58.0534L64.0654 30.2507L70.1014 14.8667H75.0814L66.3334 37.1987H61.7734L53.0254 14.8667Z" fill="#4A4A4A"/>
  <path d="M87.4161 37.6787C85.4881 37.6787 83.7681 37.2627 82.2561 36.4307C80.7681 35.5747 79.6081 34.3907 78.7761 32.8787C77.9441 31.3667 77.5281 29.6467 77.5281 27.7187C77.5281 25.7907 77.9441 24.0707 78.7761 22.5587C79.6081 21.0467 80.7681 19.8747 82.2561 19.0427C83.7681 18.1867 85.4881 17.7587 87.4161 17.7587C89.3441 17.7587 91.0521 18.1867 92.5401 19.0427C94.0521 19.8747 95.2121 21.0467 96.0201 22.5587C96.8521 24.0707 97.2681 25.7907 97.2681 27.7187C97.2681 29.6467 96.8521 31.3667 96.0201 32.8787C95.2121 34.3907 94.0521 35.5747 92.5401 36.4307C91.0521 37.2627 89.3441 37.6787 87.4161 37.6787ZM87.4161 33.3867C88.6001 33.3867 89.5761 32.9587 90.3441 32.1027C91.1361 31.2467 91.5321 29.9907 91.5321 28.3707C91.5321 26.7507 91.1361 25.4947 90.3441 24.6027C89.5761 23.7107 88.6001 23.2647 87.4161 23.2647C86.2321 23.2647 85.2441 23.7107 84.4521 24.6027C83.6841 25.4947 83.3001 26.7507 83.3001 28.3707C83.3001 29.9907 83.6841 31.2467 84.4521 32.1027C85.2441 32.9587 86.2321 33.3867 87.4161 33.3867Z" fill="#4A4A4A"/>
  <path d="M99.824 18.2387H105.512V21.4547C106.152 20.3667 106.92 19.5507 107.816 19.0067C108.712 18.4387 109.72 18.1547 110.84 18.1547C111.336 18.1547 111.784 18.2027 112.184 18.2987V23.6807C111.672 23.4687 111.08 23.3627 110.408 23.3627C109.064 23.3627 108.024 23.7907 107.288 24.6467C106.552 25.5027 106.184 26.8567 106.184 28.7087V37.1987H100.496V18.2387H99.824Z" fill="#4A4A4A"/>
  <path d="M114.8 18.2387H120.488V37.1987H114.8V18.2387ZM114.8 12.5507H120.488V17.0627H114.8V12.5507Z" fill="#4A4A4A"/>
  <path d="M124.155 18.2387H129.843V20.8467C130.595 19.8307 131.451 19.0427 132.411 18.4827C133.395 17.9227 134.507 17.6427 135.747 17.6427C137.491 17.6427 138.835 18.1867 139.779 19.2747C140.747 20.3387 141.231 21.9827 141.231 24.2067V37.1987H135.543V25.5747C135.543 24.4627 135.327 23.6587 134.895 23.1627C134.487 22.6427 133.859 22.3827 133.011 22.3827C132.115 22.3827 131.347 22.7387 130.707 23.4507C130.091 24.1387 129.783 25.1547 129.783 26.4987V37.1987H124.155V18.2387Z" fill="#4A4A4A"/>
  <path d="M156.19 18.2387V37.1987H150.502V34.7587C149.126 36.7107 147.19 37.6867 144.694 37.6867C142.846 37.6867 141.37 37.1387 140.266 36.0427C139.186 34.9467 138.646 33.3027 138.646 31.1107V18.2387H144.334V29.8987C144.334 30.9627 144.55 31.7547 144.982 32.2747C145.414 32.7707 146.05 33.0187 146.89 33.0187C147.778 33.0187 148.506 32.6547 149.074 31.9267C149.666 31.1987 149.962 30.1467 149.962 28.7707V18.2387H156.19Z" fill="#4A4A4A"/>
  <path d="M158.73 14.5748V10.0788H159.826V14.5748H158.73Z" fill="#87A636"/>
</svg> 